<svg xmlns="http://www.w3.org/2000/svg" viewBox="0 0 49.08 46.13"><defs><style>.cls-1{fill:#fff;}</style></defs><title>Asset 6</title><g id="Layer_2" data-name="Layer 2"><g id="Layer_1-2" data-name="Layer 1"><path class="cls-1" d="M2.88,8.9V1.06H0V34.81H2.88V16.16C1.45,13.62,1.27,11.16,2.88,8.9Z"/><path class="cls-1" d="M30.25,15.55a3.27,3.27,0,1,0,3.26,3.27A3.26,3.26,0,0,0,30.25,15.55Zm.31,5.24a2.29,2.29,0,1,1,2.28-2.29A2.29,2.29,0,0,1,30.56,20.79Z"/><path class="cls-1" d="M49.08,42.67C41.69,39,35.44,35.58,30.22,32.38c0,.65-.12,1.28-.18,1.88C40.09,39.24,49.08,42.67,49.08,42.67Z"/><path class="cls-1" d="M9.13,11.5C8.69,2.87,24.5,0,24.5,0,12.6,2,6.36,4.94,4,8.27,2.4,10.53,2.57,13,4,15.54c3.38,6,13.73,12.44,23.66,17.53,0-.83-.06-1.62-.1-2.36C15,22.64,9.36,16.16,9.13,11.5Z"/><path class="cls-1" d="M30.48,28.53c2.42-.31,4.22-1.46,4.22-2.84h-1a6.64,6.64,0,0,1-9.09,0h-1c0,1.29,1.57,2.38,3.75,2.77.06.65.11,1.41.16,2.25.85.55,1.75,1.11,2.66,1.67C30.33,31.2,30.41,29.92,30.48,28.53Z"/><path class="cls-1" d="M27.66,33.07c.13,5-.27,11.33-2.85,13,0,0,3.78.7,5.23-11.86Z"/><path class="cls-1" d="M29.17,13.25a6.67,6.67,0,1,0,6.67,6.67A6.67,6.67,0,0,0,29.17,13.25Zm.63,10.69a4.67,4.67,0,1,1,4.67-4.67A4.67,4.67,0,0,1,29.8,23.94Z"/></g></g></svg>